<svg xmlns="http://www.w3.org/2000/svg" xmlns:xlink="http://www.w3.org/1999/xlink" width="500" zoomAndPan="magnify" viewBox="0 0 375 374.999991" height="500" preserveAspectRatio="xMidYMid meet" version="1.0"><defs><g/><clipPath id="532227dad2"><path d="M 186.6875 132.90625 L 262.96875 132.90625 L 262.96875 234.71875 L 186.6875 234.71875 Z M 186.6875 132.90625 " clip-rule="nonzero"/></clipPath><clipPath id="bf2062bd13"><path d="M 0.6875 0.90625 L 76.96875 0.90625 L 76.96875 102.71875 L 0.6875 102.71875 Z M 0.6875 0.90625 " clip-rule="nonzero"/></clipPath><clipPath id="19e22e0fb3"><rect x="0" width="77" y="0" height="103"/></clipPath></defs><rect x="-37.5" width="450" fill="#ffffff" y="-37.499999" height="449.999989" fill-opacity="1"/><rect x="-37.5" width="450" fill="#ffffff" y="-37.499999" height="449.999989" fill-opacity="1"/><g clip-path="url(#532227dad2)"><g transform="matrix(1, 0, 0, 1, 186, 132)"><g clip-path="url(#19e22e0fb3)"><g clip-path="url(#bf2062bd13)"><path fill="#8a05af" d="M 0.6875 0.90625 L 76.96875 0.90625 L 76.96875 102.8125 L 0.6875 102.8125 Z M 0.6875 0.90625 " fill-opacity="1" fill-rule="nonzero"/></g></g></g></g><g fill="#000000" fill-opacity="1"><g transform="translate(98.617148, 232.732118)"><g><path d="M 76.78125 -94.65625 L 76.78125 -76.65625 L 30.859375 -76.65625 L 30.859375 -56.453125 L 71.5 -56.453125 L 71.5 -38.453125 L 30.859375 -38.453125 L 30.859375 -18 L 78.578125 -18 L 78.578125 0 L 12.21875 0 L 12.21875 -94.65625 Z M 76.78125 -94.65625 "/></g></g></g><g fill="#ffffff" fill-opacity="1"><g transform="translate(184.269486, 232.732118)"><g><path d="M 62.765625 -71.765625 C 54.535156 -76.304688 47.375 -78.578125 41.28125 -78.578125 C 37.164062 -78.578125 33.972656 -77.757812 31.703125 -76.125 C 29.429688 -74.5 28.296875 -72.0625 28.296875 -68.8125 C 28.296875 -65.8125 29.945312 -63.171875 33.25 -60.890625 C 36.550781 -58.617188 40.941406 -56.457031 46.421875 -54.40625 C 50.878906 -52.769531 54.691406 -50.898438 57.859375 -48.796875 C 61.035156 -46.703125 63.675781 -43.8125 65.78125 -40.125 C 67.882812 -36.4375 68.9375 -31.765625 68.9375 -26.109375 C 68.9375 -21.222656 67.671875 -16.695312 65.140625 -12.53125 C 62.609375 -8.375 58.898438 -5.070312 54.015625 -2.625 C 49.128906 -0.1875 43.300781 1.03125 36.53125 1.03125 C 30.863281 1.03125 25.242188 0.195312 19.671875 -1.46875 C 14.097656 -3.144531 8.910156 -5.695312 4.109375 -9.125 L 12.34375 -23.671875 C 15.601562 -21.265625 19.332031 -19.289062 23.53125 -17.75 C 27.738281 -16.207031 31.515625 -15.4375 34.859375 -15.4375 C 38.796875 -15.4375 42.222656 -16.269531 45.140625 -17.9375 C 48.054688 -19.613281 49.515625 -22.335938 49.515625 -26.109375 C 49.515625 -30.992188 44.925781 -35.238281 35.75 -38.84375 C 30.351562 -40.988281 25.851562 -43.046875 22.25 -45.015625 C 18.644531 -46.984375 15.535156 -49.8125 12.921875 -53.5 C 10.304688 -57.1875 9 -61.816406 9 -67.390625 C 9 -75.535156 11.675781 -82.09375 17.03125 -87.0625 C 22.394531 -92.039062 29.535156 -94.742188 38.453125 -95.171875 C 45.484375 -95.171875 51.351562 -94.375 56.0625 -92.78125 C 60.78125 -91.195312 65.367188 -88.953125 69.828125 -86.046875 Z M 62.765625 -71.765625 "/></g></g></g><g fill="#ffffff" fill-opacity="1"><g transform="translate(259.246047, 232.732118)"><g/></g></g><g fill="#000000" fill-opacity="1"><g transform="translate(96.9609, 283.141916)"><g><path d="M 13.96875 -17.234375 L 13.96875 -13.953125 L 5.625 -13.953125 L 5.625 -10.28125 L 13.015625 -10.28125 L 13.015625 -7 L 5.625 -7 L 5.625 -3.28125 L 14.296875 -3.28125 L 14.296875 0 L 2.21875 0 L 2.21875 -17.234375 Z M 13.96875 -17.234375 "/></g></g></g><g fill="#000000" fill-opacity="1"><g transform="translate(112.539077, 283.141916)"><g><path d="M 15.140625 -1.421875 C 14.703125 -1.066406 14.007812 -0.707031 13.0625 -0.34375 C 12.113281 0.0078125 11.078125 0.1875 9.953125 0.1875 C 8.148438 0.1875 6.585938 -0.203125 5.265625 -0.984375 C 3.941406 -1.765625 2.925781 -2.8125 2.21875 -4.125 C 1.519531 -5.445312 1.171875 -6.894531 1.171875 -8.46875 C 1.171875 -10.207031 1.519531 -11.753906 2.21875 -13.109375 C 2.925781 -14.460938 3.910156 -15.519531 5.171875 -16.28125 C 6.429688 -17.039062 7.890625 -17.421875 9.546875 -17.421875 C 10.597656 -17.421875 11.566406 -17.28125 12.453125 -17 C 13.335938 -16.71875 14.117188 -16.363281 14.796875 -15.9375 L 13.453125 -12.734375 C 12.222656 -13.671875 10.960938 -14.140625 9.671875 -14.140625 C 8.796875 -14.140625 7.972656 -13.894531 7.203125 -13.40625 C 6.441406 -12.925781 5.832031 -12.269531 5.375 -11.4375 C 4.925781 -10.601562 4.703125 -9.675781 4.703125 -8.65625 C 4.703125 -7.550781 4.910156 -6.582031 5.328125 -5.75 C 5.753906 -4.914062 6.359375 -4.265625 7.140625 -3.796875 C 7.921875 -3.328125 8.832031 -3.09375 9.875 -3.09375 C 10.71875 -3.09375 11.472656 -3.226562 12.140625 -3.5 C 12.816406 -3.769531 13.347656 -4.09375 13.734375 -4.46875 Z M 15.140625 -1.421875 "/></g></g></g><g fill="#000000" fill-opacity="1"><g transform="translate(128.842364, 283.141916)"><g><path d="M 1.171875 -8.59375 C 1.171875 -10.15625 1.5625 -11.613281 2.34375 -12.96875 C 3.132812 -14.320312 4.203125 -15.398438 5.546875 -16.203125 C 6.898438 -17.015625 8.367188 -17.421875 9.953125 -17.421875 C 11.523438 -17.421875 12.984375 -17.015625 14.328125 -16.203125 C 15.679688 -15.398438 16.757812 -14.320312 17.5625 -12.96875 C 18.363281 -11.613281 18.765625 -10.15625 18.765625 -8.59375 C 18.765625 -7 18.363281 -5.53125 17.5625 -4.1875 C 16.757812 -2.84375 15.679688 -1.773438 14.328125 -0.984375 C 12.984375 -0.203125 11.523438 0.1875 9.953125 0.1875 C 8.359375 0.1875 6.890625 -0.203125 5.546875 -0.984375 C 4.203125 -1.773438 3.132812 -2.84375 2.34375 -4.1875 C 1.5625 -5.53125 1.171875 -7 1.171875 -8.59375 Z M 4.6875 -8.59375 C 4.6875 -7.59375 4.921875 -6.671875 5.390625 -5.828125 C 5.867188 -4.984375 6.515625 -4.316406 7.328125 -3.828125 C 8.148438 -3.335938 9.0625 -3.09375 10.0625 -3.09375 C 11.03125 -3.09375 11.910156 -3.335938 12.703125 -3.828125 C 13.503906 -4.316406 14.128906 -4.976562 14.578125 -5.8125 C 15.035156 -6.644531 15.265625 -7.570312 15.265625 -8.59375 C 15.265625 -9.625 15.03125 -10.554688 14.5625 -11.390625 C 14.09375 -12.234375 13.457031 -12.898438 12.65625 -13.390625 C 11.851562 -13.890625 10.957031 -14.140625 9.96875 -14.140625 C 8.988281 -14.140625 8.09375 -13.890625 7.28125 -13.390625 C 6.476562 -12.898438 5.84375 -12.234375 5.375 -11.390625 C 4.914062 -10.554688 4.6875 -9.625 4.6875 -8.59375 Z M 4.6875 -8.59375 "/></g></g></g><g fill="#000000" fill-opacity="1"><g transform="translate(148.771195, 283.141916)"><g><path d="M 19.96875 -17.921875 L 19.96875 0 L 16.578125 0 L 16.578125 -8.21875 L 10.953125 -0.234375 L 10.90625 -0.234375 L 5.5 -7.703125 L 5.5 0 L 2.21875 0 L 2.21875 -17.921875 L 2.25 -17.921875 L 10.984375 -5.546875 L 19.921875 -17.921875 Z M 19.96875 -17.921875 "/></g></g></g><g fill="#000000" fill-opacity="1"><g transform="translate(170.94553, 283.141916)"><g/></g></g><g fill="#000000" fill-opacity="1"><g transform="translate(178.547496, 283.141916)"><g><path d="M 11.421875 -13.0625 C 9.921875 -13.882812 8.617188 -14.296875 7.515625 -14.296875 C 6.765625 -14.296875 6.179688 -14.144531 5.765625 -13.84375 C 5.359375 -13.550781 5.15625 -13.109375 5.15625 -12.515625 C 5.15625 -11.972656 5.453125 -11.492188 6.046875 -11.078125 C 6.648438 -10.671875 7.453125 -10.28125 8.453125 -9.90625 C 9.265625 -9.601562 9.957031 -9.257812 10.53125 -8.875 C 11.113281 -8.5 11.59375 -7.972656 11.96875 -7.296875 C 12.351562 -6.628906 12.546875 -5.78125 12.546875 -4.75 C 12.546875 -3.863281 12.316406 -3.039062 11.859375 -2.28125 C 11.398438 -1.519531 10.722656 -0.914062 9.828125 -0.46875 C 8.941406 -0.03125 7.878906 0.1875 6.640625 0.1875 C 5.617188 0.1875 4.597656 0.0351562 3.578125 -0.265625 C 2.566406 -0.566406 1.625 -1.03125 0.75 -1.65625 L 2.25 -4.3125 C 2.84375 -3.875 3.519531 -3.515625 4.28125 -3.234375 C 5.050781 -2.953125 5.738281 -2.8125 6.34375 -2.8125 C 7.0625 -2.8125 7.6875 -2.960938 8.21875 -3.265625 C 8.75 -3.566406 9.015625 -4.0625 9.015625 -4.75 C 9.015625 -5.632812 8.175781 -6.40625 6.5 -7.0625 C 5.519531 -7.457031 4.703125 -7.832031 4.046875 -8.1875 C 3.390625 -8.550781 2.820312 -9.066406 2.34375 -9.734375 C 1.875 -10.410156 1.640625 -11.253906 1.640625 -12.265625 C 1.640625 -13.742188 2.125 -14.9375 3.09375 -15.84375 C 4.070312 -16.75 5.375 -17.242188 7 -17.328125 C 8.28125 -17.328125 9.347656 -17.179688 10.203125 -16.890625 C 11.066406 -16.597656 11.898438 -16.1875 12.703125 -15.65625 Z M 11.421875 -13.0625 "/></g></g></g><g fill="#000000" fill-opacity="1"><g transform="translate(192.187456, 283.141916)"><g/></g></g><g fill="#000000" fill-opacity="1"><g transform="translate(195.359333, 283.141916)"><g><path d="M 12.65625 -17.234375 L 12.65625 -13.953125 L 8.46875 -13.953125 L 8.46875 0 L 5.078125 0 L 5.078125 -13.953125 L 1.046875 -13.953125 L 1.046875 -17.234375 Z M 12.65625 -17.234375 "/></g></g></g><g fill="#000000" fill-opacity="1"><g transform="translate(209.066253, 283.141916)"><g><path d="M 10.75 -3.375 L 5.03125 -3.375 L 3.625 0 L 0.28125 0 L 8.046875 -17.90625 L 8.234375 -17.90625 L 16.015625 0 L 12.078125 0 Z M 9.625 -6.21875 L 7.953125 -10.421875 L 6.21875 -6.21875 Z M 9.625 -6.21875 "/></g></g></g><g fill="#000000" fill-opacity="1"><g transform="translate(225.346148, 283.141916)"><g><path d="M 11.515625 0 L 7.890625 -5.484375 L 5.625 -5.484375 L 5.625 0 L 2.21875 0 L 2.21875 -17.234375 L 7.4375 -17.234375 C 9.582031 -17.234375 11.242188 -16.710938 12.421875 -15.671875 C 13.597656 -14.628906 14.1875 -13.210938 14.1875 -11.421875 C 14.1875 -10.359375 13.960938 -9.363281 13.515625 -8.4375 C 13.066406 -7.507812 12.382812 -6.78125 11.46875 -6.25 L 15.46875 0 Z M 5.625 -8.75 L 8.03125 -8.75 C 8.945312 -8.75 9.613281 -9.019531 10.03125 -9.5625 C 10.457031 -10.101562 10.671875 -10.6875 10.671875 -11.3125 C 10.671875 -11.925781 10.488281 -12.519531 10.125 -13.09375 C 9.769531 -13.664062 9.078125 -13.953125 8.046875 -13.953125 L 5.625 -13.953125 Z M 5.625 -8.75 "/></g></g></g><g fill="#000000" fill-opacity="1"><g transform="translate(241.392136, 283.141916)"><g><path d="M 12.65625 -17.234375 L 12.65625 -13.953125 L 8.46875 -13.953125 L 8.46875 0 L 5.078125 0 L 5.078125 -13.953125 L 1.046875 -13.953125 L 1.046875 -17.234375 Z M 12.65625 -17.234375 "/></g></g></g><g fill="#000000" fill-opacity="1"><g transform="translate(255.099056, 283.141916)"><g><path d="M 13.96875 -17.234375 L 13.96875 -13.953125 L 5.625 -13.953125 L 5.625 -10.28125 L 13.015625 -10.28125 L 13.015625 -7 L 5.625 -7 L 5.625 -3.28125 L 14.296875 -3.28125 L 14.296875 0 L 2.21875 0 L 2.21875 -17.234375 Z M 13.96875 -17.234375 "/></g></g></g><g fill="#000000" fill-opacity="1"><g transform="translate(270.677234, 283.141916)"><g><path d="M 11.515625 0 L 7.890625 -5.484375 L 5.625 -5.484375 L 5.625 0 L 2.21875 0 L 2.21875 -17.234375 L 7.4375 -17.234375 C 9.582031 -17.234375 11.242188 -16.710938 12.421875 -15.671875 C 13.597656 -14.628906 14.1875 -13.210938 14.1875 -11.421875 C 14.1875 -10.359375 13.960938 -9.363281 13.515625 -8.4375 C 13.066406 -7.507812 12.382812 -6.78125 11.46875 -6.25 L 15.46875 0 Z M 5.625 -8.75 L 8.03125 -8.75 C 8.945312 -8.75 9.613281 -9.019531 10.03125 -9.5625 C 10.457031 -10.101562 10.671875 -10.6875 10.671875 -11.3125 C 10.671875 -11.925781 10.488281 -12.519531 10.125 -13.09375 C 9.769531 -13.664062 9.078125 -13.953125 8.046875 -13.953125 L 5.625 -13.953125 Z M 5.625 -8.75 "/></g></g></g></svg>